Coordinates
version=1
nRows=60
nColumns=12
inDegrees=yes

Units are S.I. units (second, meters, Newtons, ...)
Angles are in degrees

endheader
time	SC_y	SC_z	SC_x	AC_y	AC_z	AC_x	GH_y	GH_z	GH_yy	EL_x	PS_y
       0.0              -56.11          10.78          68.63           37.9         -16.74         -2.987         -102.5          19.56          145.7          94.15          15.91
   0.02297               -56.1          10.77          68.62          37.91         -16.74         -2.989         -102.5          19.56          145.6          94.14          15.91
   0.04594               -56.1          10.77          68.61          37.91         -16.74          -2.99         -102.4          19.57          145.6          94.13          15.92
   0.06891              -56.09          10.77           68.6          37.92         -16.73         -2.991         -102.4          19.58          145.6          94.12          15.93
   0.09188              -56.09          10.77          68.59          37.92         -16.73         -2.993         -102.4          19.59          145.6          94.11          15.94
    0.1148              -56.08          10.77          68.58          37.93         -16.72         -2.995         -102.3           19.6          145.5           94.1          15.95
    0.1378              -56.07          10.77          68.56          37.93         -16.72         -2.996         -102.3          19.61          145.5          94.08          15.96
    0.1608              -56.07          10.76          68.55          37.94         -16.72         -2.998         -102.3          19.63          145.5          94.07          15.97
    0.1838              -56.06          10.76          68.54          37.94         -16.71           -3.0         -102.2          19.64          145.4          94.06          15.98
    0.2067              -56.05          10.76          68.52          37.95          -16.7         -3.002         -102.2          19.65          145.4          94.04          15.99
    0.2297              -56.05          10.76           68.5          37.96          -16.7         -3.005         -102.1          19.67          145.4          94.02          16.01
    0.2527              -56.04          10.75          68.49          37.97         -16.69         -3.007         -102.1          19.68          145.3           94.0          16.02
    0.2756              -56.03          10.75          68.47          37.98         -16.69          -3.01         -102.0           19.7          145.3          93.98          16.04
    0.2986              -56.02          10.75          68.45          37.98         -16.68         -3.013         -102.0          19.72          145.2          93.96          16.05
    0.3216              -56.01          10.74          68.42          37.99         -16.67         -3.016         -101.9          19.74          145.2          93.94          16.07
    0.3445              -55.99          10.74           68.4          38.01         -16.66         -3.019         -101.8          19.76          145.1          93.91          16.09
    0.3675              -55.98          10.73          68.37          38.02         -16.65         -3.023         -101.7          19.78          145.0          93.89          16.11
    0.3905              -55.97          10.73          68.35          38.03         -16.64         -3.027         -101.7          19.81          145.0          93.86          16.13
    0.4134              -55.95          10.72          68.31          38.04         -16.63         -3.031         -101.6          19.84          144.9          93.82          16.16
    0.4364              -55.93          10.72          68.28          38.06         -16.62         -3.036         -101.5          19.87          144.8          93.79          16.19
    0.4594              -55.92          10.71          68.24          38.08          -16.6         -3.042         -101.4           19.9          144.7          93.75          16.22
    0.4823               -55.9          10.71           68.2           38.1         -16.59         -3.047         -101.2          19.94          144.6          93.71          16.25
    0.5053              -55.87           10.7          68.15          38.12         -16.57         -3.054         -101.1          19.98          144.5          93.66          16.29
    0.5283              -55.85          10.69           68.1          38.14         -16.55         -3.061         -100.9          20.03          144.3          93.61          16.33
    0.5513              -55.82          10.68          68.05          38.16         -16.53         -3.069         -100.8          20.08          144.2          93.55          16.37
    0.5742              -55.79          10.67          67.98          38.19         -16.51         -3.078         -100.6          20.13          144.0          93.48          16.42
    0.5972              -55.76          10.66          67.91          38.22         -16.49         -3.088         -100.4           20.2          143.9          93.41          16.48
    0.6202              -55.72          10.65          67.83          38.26         -16.46         -3.099         -100.2          20.27          143.7          93.33          16.54
    0.6431              -55.67          10.63          67.75           38.3         -16.43         -3.111         -99.89          20.35          143.4          93.23          16.62
    0.6661              -55.62          10.61          67.64          38.35         -16.39         -3.126         -99.59          20.44          143.2          93.13           16.7
    0.6891              -55.57           10.6          67.53           38.4         -16.35         -3.142         -99.25          20.54          142.9          93.01          16.79
     0.712               -55.5          10.57          67.39          38.46          -16.3         -3.161         -98.86          20.66          142.6          92.87           16.9
     0.735              -55.42          10.55          67.24          38.53         -16.24         -3.182         -98.41           20.8          142.2          92.71          17.02
     0.758              -55.34          10.52          67.06          38.61         -16.18         -3.207         -97.88          20.96          141.7          92.52          17.16
    0.7809              -55.23          10.49          66.85           38.7          -16.1         -3.237         -97.26          21.15          141.2          92.31          17.33
    0.8039              -55.11          10.44          66.61          38.81         -16.02         -3.271         -96.54          21.37          140.6          92.05          17.53
    0.8269              -54.97           10.4          66.31          38.94         -15.91         -3.312         -95.68          21.63          139.8          91.75          17.76
    0.8498               -54.8          10.34          65.96           39.1         -15.78         -3.362         -94.64          21.95          139.0          91.38          18.05
    0.8728              -54.59          10.27          65.54          39.29         -15.63         -3.421         -93.39          22.33          137.9          90.94          18.39
    0.8958              -54.33          10.18          65.02          39.53         -15.44         -3.494         -91.87          22.79          136.6           90.4           18.8
    0.9188              -54.02          10.08          64.38          39.81         -15.21         -3.584         -89.98          23.37          135.0          89.73          19.32
    0.9417              -53.62          9.948          63.58          40.17         -14.93         -3.696         -87.63          24.09          133.0           88.9          19.96
    0.9647              -53.13          9.783          62.57          40.62         -14.57         -3.838         -84.67          24.99          130.4          87.86          20.76
    0.9877               -52.5          9.573          61.29           41.2         -14.11         -4.017          -80.9          26.14          127.2          86.53          21.79
     1.011               -51.7          9.305          59.65          41.94         -13.52         -4.247         -76.09           27.6          123.1          84.83           23.1
     1.034              -50.66           8.96          57.55          42.88         -12.76         -4.542          -69.9          29.49          117.8          82.64          24.79
     1.057              -49.35           8.52          54.87          44.09          -11.8         -4.919         -62.01           31.9          111.1          79.86          26.94
      1.08              -47.69          7.966          51.49           45.6         -10.58         -5.393         -52.08          34.92          102.6          76.35          29.65
     1.103              -45.67          7.292          47.38          47.45         -9.103          -5.97         -39.97          38.61          92.22          72.08          32.95
     1.125              -43.32           6.51          42.61          49.59         -7.389         -6.639         -25.95          42.89          80.23          67.12          36.77
     1.148              -40.79          5.663          37.44          51.91         -5.533         -7.364         -10.76          47.51          67.25          61.76          40.91
     1.171              -38.25          4.816          32.28          54.23         -3.677         -8.089          4.431          52.14          54.26           56.4          45.05
     1.194              -35.91          4.034          27.51          56.37         -1.963         -8.758          18.46          56.42          42.27          51.44          48.87
     1.217              -33.89           3.36           23.4          58.22        -0.4836         -9.336          30.56          60.11          31.93          47.17          52.17
      1.24              -32.23          2.806          20.02          59.74         0.7299         -9.809          40.49          63.13          23.44          43.66          54.88
     1.263              -30.91          2.366          17.34          60.95          1.695         -10.19          48.39          65.54          16.69          40.87          57.03
     1.286              -29.88          2.021          15.24          61.89          2.451         -10.48          54.57          67.43           11.4          38.69          58.71
     1.309              -29.07          1.753           13.6          62.63          3.039         -10.71          59.39          68.89          7.282          36.99          60.03
     1.332              -28.44          1.543          12.32           63.2            3.5         -10.89          63.15          70.04          4.064          35.66          61.05
     1.355              -27.95          1.378          11.31          63.65          3.861         -11.03          66.11          70.94          1.533          34.61          61.86
